<?xml version="1.0" encoding="UTF-8" standalone="no"?>
<svg
   xmlns:dc="http://purl.org/dc/elements/1.1/"
   xmlns:cc="http://creativecommons.org/ns#"
   xmlns:rdf="http://www.w3.org/1999/02/22-rdf-syntax-ns#"
   xmlns:svg="http://www.w3.org/2000/svg"
   xmlns="http://www.w3.org/2000/svg"
   xmlns:sodipodi="http://sodipodi.sourceforge.net/DTD/sodipodi-0.dtd"
   xmlns:inkscape="http://www.inkscape.org/namespaces/inkscape"
   width="210mm"
   height="297mm"
   viewBox="0 0 210 297"
   version="1.1"
   id="svg4318"
   inkscape:version="1.0 (9f2f71dc58, 2020-08-02)"
   sodipodi:docname="placemark.svg">
  <defs
     id="defs4312" />
  <sodipodi:namedview
     id="base"
     pagecolor="#ffffff"
     bordercolor="#666666"
     borderopacity="1.0"
     inkscape:pageopacity="0.0"
     inkscape:pageshadow="2"
     inkscape:zoom="0.061871843"
     inkscape:cx="275.90588"
     inkscape:cy="-853.14016"
     inkscape:document-units="mm"
     inkscape:current-layer="layer1"
     inkscape:document-rotation="0"
     showgrid="false"
     inkscape:snap-smooth-nodes="true"
     inkscape:snap-page="true"
     inkscape:window-width="1024"
     inkscape:window-height="656"
     inkscape:window-x="56"
     inkscape:window-y="27"
     inkscape:window-maximized="1"
     inkscape:snap-global="false" />
  <metadata
     id="metadata4315">
    <rdf:RDF>
      <cc:Work
         rdf:about="">
        <dc:format>image/svg+xml</dc:format>
        <dc:type
           rdf:resource="http://purl.org/dc/dcmitype/StillImage" />
        <dc:title />
      </cc:Work>
    </rdf:RDF>
  </metadata>
  <g
     inkscape:label="Layer 1"
     inkscape:groupmode="layer"
     id="layer1">
    <path
       style="fill:#000000;stroke:none;stroke-width:0.264583px;stroke-linecap:butt;stroke-linejoin:miter;stroke-opacity:1"
       d="M -5.3702482,-2.4743486 C -10.242286,-6.9402679 -49.955599,-76.685953 -76.604136,-127.57734 c -46.734054,-89.24931 -70.983044,-152.78 -70.949634,-185.88301 0.0573,-54.08193 31.17406,-105.24462 79.068234,-129.9943 22.718226,-11.73981 42.684617,-16.63934 68.03569057,-16.69515 25.97047543,-0.0574 45.83270943,4.7527 68.93380743,16.69303 47.900068,24.75844 79.015178,75.91384 79.069808,129.99642 0.0289,33.02505 -24.36515,97.00116 -70.832446,185.73178 C 50.041984,-76.783702 10.273172,-6.9725157 5.3687427,-2.4743486 3.6921601,-0.93661741 1.6598472,0 3.6115871e-5,0 -1.659415,0 -3.6930899,-0.9370493 -5.3702482,-2.4743486 Z"
       id="path4881" />
    <path
       style="fill:#ffffff;stroke:none;stroke-width:0.264583px;stroke-linecap:butt;stroke-linejoin:miter;stroke-opacity:1"
       d="m 107.93742,-315.29401 a 107.93743,107.93743 0 1 1 -215.87485,0 107.93743,107.93743 0 1 1 215.87485,0 z"
       id="path4883" />
  </g>
</svg>
